<svg version="1.1" preserveAspectRatio="none" xmlns="http://www.w3.org/2000/svg" width="400" height="100">
  <svg viewBox="-53.4212 106.843 397.29 120" width="333" fill="url(#MyGradient)" fill-opacity="0.9" height="100.581439250925" xmlns="http://www.w3.org/2000/svg"
    xmlns:xlink="http://www.w3.org/1999/xlink" preserveAspectRatio="none">
    <defs>
      <linearGradient id="MyGradient">
        <stop offset="23%" stop-color="rgba(121, 121, 121, 1)" />
        <stop offset="93%" stop-color="rgba(0, 0, 0, 1)" />
      </linearGradient>
    </defs>
    <g opacity="1" transform="rotate(0 -53.4212 106.843)">
      <svg width="160.9266" height="120" x="-53.4212" y="106.843" version="1.1" preserveAspectRatio="none"
        viewBox="0.32900071144104004 13.081995964050293 90.33887481689453 67.36400604248047">
        <g transform="matrix(1 0 0 1 0 0)" class="icon1">
          <g>
            <path
              d="M80.988,56.487c-0.11,0.842-1.542,15.304-1.785,17.765c-0.208,0.782-0.567,2.788,0.619,4.42   c0.589,0.809,1.75,1.771,3.951,1.771c0.152,0,0.313-0.004,0.354-0.01l1.196-0.004c2.417,0.13,3.675-0.876,4.325-1.719   c1.333-1.725,1.042-3.982,0.86-4.853l-1.086-58.231c-0.018-0.89-0.583-1.674-1.42-1.971c-1.071-0.38-2.11-0.573-3.085-0.573   c-6.761,0-8.566,8.555-8.566,13.61v7.685c0,0.821,0.118,8.113,4.177,11.532c1.781,1.499,1.067,6.388,0.639,9.307   C81.104,55.666,81.04,56.092,80.988,56.487z M86.245,74.158c0.004,0.167,0.027,0.335,0.069,0.497   c0.114,0.44,0.112,1.26-0.036,1.439c0,0.002-0.126,0.081-0.518,0.081l-0.313-0.008l-1.675,0.01c-0.266,0-0.422-0.033-0.479-0.033   c-0.007,0-0.013,0.002-0.019,0.004c-0.045-0.177-0.016-0.58,0.06-0.835c0.048-0.146,0.079-0.295,0.095-0.449   c0.675-6.828,1.709-17.209,1.788-17.819c0.05-0.376,0.108-0.781,0.172-1.211c0.158-1.079,0.338-2.306,0.445-3.581L86.245,74.158z    M80.619,34.377v-7.685c0-0.092,0.186-9.342,4.299-9.342c0.087,0,0.178,0.003,0.27,0.011l0.56,30.08   c-0.307-1.874-1.028-3.583-2.471-4.797C81.113,40.823,80.625,36.057,80.619,34.377z">
            </path>
            <path
              d="M2.626,73.886c-0.083,0.623-0.309,3.186,1.304,4.976c0.667,0.739,1.868,1.584,3.772,1.584c0.131,0,0.266-0.002,0.404-0.012   l1.196-0.004c2.284,0.135,3.579-0.807,4.247-1.62c1.453-1.77,1.088-4.229,0.923-5.011c-0.309-4.098-1.685-22.389-1.798-23.253   c-0.391-2.95-1.119-8.444,0.778-10.907c2.71-3.522,3.263-9.796,3.317-10.5c0.005-0.054,0.006-0.11,0.006-0.164V15.667   c0-1.177-0.955-2.133-2.133-2.133c-1.178,0-2.133,0.956-2.133,2.133v13.224c-0.136,1.627-0.815,6.035-2.441,8.146   c-0.697,0.908-1.186,1.953-1.517,3.07c-0.33-1.117-0.818-2.164-1.516-3.07c-1.618-2.101-2.301-6.516-2.439-8.147V15.667   c0-1.177-0.956-2.133-2.134-2.133c-1.177,0-2.133,0.956-2.133,2.133v13.309c0,0.054,0.002,0.11,0.007,0.164   c0.054,0.704,0.605,6.978,3.316,10.5c1.896,2.463,1.168,7.957,0.776,10.909C4.318,51.416,2.921,69.966,2.626,73.886z M6.854,74.463   c0.011-0.062,0.018-0.124,0.023-0.186c0.562-7.479,1.378-18.239,1.676-21.916c0.301,3.692,1.116,14.44,1.676,21.916   c0.01,0.116,0.033,0.249,0.06,0.363c0.136,0.563,0.096,1.302-0.031,1.454c-0.039,0.027-0.25,0.099-0.83,0.073L7.982,76.17   c-0.44,0.025-0.762-0.036-0.879-0.164C6.852,75.732,6.79,74.91,6.854,74.463z">
            </path>
            <path
              d="M6.42,15.667v14.028c0,1.178,0.956,2.133,2.133,2.133c1.178,0,2.134-0.955,2.134-2.133V15.667   c0-1.177-0.956-2.133-2.134-2.133C7.376,13.534,6.42,14.489,6.42,15.667z">
            </path>
            <path
              d="M15.718,48.333c0,16.715,13.599,30.313,30.313,30.313c16.714,0,30.313-13.598,30.313-30.313   c0-16.713-13.599-30.311-30.313-30.311C29.317,18.022,15.718,31.62,15.718,48.333z M72.234,48.333   c0,14.45-11.755,26.205-26.203,26.205c-14.45,0-26.205-11.755-26.205-26.205c0-14.448,11.754-26.203,26.205-26.203   C60.479,22.13,72.234,33.885,72.234,48.333z">
            </path>
            <path
              d="M45.502,36.813c-2.279-2.425-5.662-3.604-9.028-2.994c-3.031,0.553-5.513,2.286-7.181,5.014   c-2.362,3.878-2.546,7.638-0.542,11.174c1.014,1.793,2.326,3.535,4.01,5.323c3.03,3.222,6.613,6.276,11.27,9.607   c0.562,0.403,1.109,0.488,1.472,0.488c0.808,0,1.338-0.396,1.544-0.552c4.148-2.957,7.552-5.811,10.407-8.724   c1.64-1.669,3.501-3.728,4.885-6.324c0.617-1.164,1.321-2.736,1.279-4.591c-0.091-3.8-1.602-6.938-4.49-9.327   c-1.749-1.443-3.987-2.238-6.307-2.238c-2.676,0-5.269,1.067-7.114,2.929C45.637,36.669,45.569,36.741,45.502,36.813z    M47.417,41.53c0.394-0.8,0.813-1.415,1.323-1.929c1.95-1.965,5.541-2.162,7.667-0.402c1.92,1.585,2.882,3.594,2.944,6.136   c0.015,0.682-0.219,1.427-0.781,2.487c-1.127,2.116-2.738,3.888-4.164,5.34c-2.482,2.531-5.31,4.938-8.91,7.569   c-3.935-2.883-7.014-5.547-9.627-8.327c-1.448-1.535-2.56-3.008-3.404-4.499c-1.234-2.178-1.087-4.292,0.472-6.851   c1.042-1.707,2.449-2.701,4.3-3.039c0.348-0.062,0.7-0.095,1.043-0.095c2.143,0,4.044,1.192,5.072,3.161l0.268,0.511   c0.379,0.707,1.148,1.139,1.918,1.127C46.338,42.711,47.063,42.249,47.417,41.53z">
            </path>
          </g>
        </g>
      </svg>
    </g>
    <g opacity="1" transform="rotate(0 137.5054 106.843)">
      <svg width="206.3634" height="120" x="137.5054" y="106.843" version="1.1" preserveAspectRatio="none"
        viewBox="3.32 -28.48 187.36 108.96000000000001">
        <g transform="matrix(1 0 0 1 0 0)" class="companyName">
          <path id="id-D6z1nYkh15"
            d="M28.12 0L21.16 0L15.76-7.80L15.44-7.80L9.80-7.80L9.80 0L3.32 0L3.32-28L15.44-28Q19.16-28 21.90-26.76Q24.64-25.52 26.12-23.24Q27.60-20.96 27.60-17.84L27.60-17.84Q27.60-14.72 26.10-12.46Q24.60-10.20 21.84-9L21.84-9L28.12 0ZM21.04-17.84Q21.04-20.20 19.52-21.46Q18-22.72 15.08-22.72L15.08-22.72L9.80-22.72L9.80-12.96L15.08-12.96Q18-12.96 19.52-14.24Q21.04-15.52 21.04-17.84L21.04-17.84Z M39.16-5.20L54.40-5.20L54.40 0L32.72 0L32.72-28L53.88-28L53.88-22.80L39.16-22.80L39.16-16.72L52.16-16.72L52.16-11.68L39.16-11.68L39.16-5.20Z M72.88 0.48Q68.60 0.48 65.14-1.38Q61.68-3.24 59.70-6.54Q57.72-9.84 57.72-14L57.72-14Q57.72-18.16 59.70-21.46Q61.68-24.76 65.14-26.62Q68.60-28.48 72.92-28.48L72.92-28.48Q76.56-28.48 79.50-27.20Q82.44-25.92 84.44-23.52L84.44-23.52L80.28-19.68Q77.44-22.96 73.24-22.96L73.24-22.96Q70.64-22.96 68.60-21.82Q66.56-20.68 65.42-18.64Q64.28-16.60 64.28-14L64.28-14Q64.28-11.40 65.42-9.36Q66.56-7.32 68.60-6.18Q70.64-5.04 73.24-5.04L73.24-5.04Q77.44-5.04 80.28-8.36L80.28-8.36L84.44-4.52Q82.44-2.08 79.48-0.80Q76.52 0.48 72.88 0.48L72.88 0.48Z M95.24-5.20L110.48-5.20L110.48 0L88.80 0L88.80-28L109.96-28L109.96-22.80L95.24-22.80L95.24-16.72L108.24-16.72L108.24-11.68L95.24-11.68L95.24-5.20Z M121.44 0L121.44-22.72L112.48-22.72L112.48-28L136.88-28L136.88-22.72L127.92-22.72L127.92 0L121.44 0Z M159.88 0L157.40-6L144.40-6L141.92 0L135.28 0L147.76-28L154.16-28L166.68 0L159.88 0ZM146.48-10.92L155.36-10.92L150.92-21.64L146.48-10.92Z M178.80 0.48Q175.48 0.48 172.38-0.42Q169.28-1.32 167.40-2.76L167.40-2.76L169.60-7.64Q171.40-6.32 173.88-5.52Q176.36-4.72 178.84-4.72L178.84-4.72Q181.60-4.72 182.92-5.54Q184.24-6.36 184.24-7.72L184.24-7.72Q184.24-8.72 183.46-9.38Q182.68-10.04 181.46-10.44Q180.24-10.84 178.16-11.32L178.16-11.32Q174.96-12.08 172.92-12.84Q170.88-13.60 169.42-15.28Q167.96-16.96 167.96-19.76L167.96-19.76Q167.96-22.20 169.28-24.18Q170.60-26.16 173.26-27.32Q175.92-28.48 179.76-28.48L179.76-28.48Q182.44-28.48 185.00-27.84Q187.56-27.20 189.48-26L189.48-26L187.48-21.08Q183.60-23.28 179.72-23.28L179.72-23.28Q177.00-23.28 175.70-22.40Q174.40-21.52 174.40-20.08L174.40-20.08Q174.40-18.64 175.90-17.94Q177.40-17.24 180.48-16.56L180.48-16.56Q183.68-15.80 185.72-15.04Q187.76-14.28 189.22-12.64Q190.68-11 190.68-8.20L190.68-8.20Q190.68-5.80 189.34-3.82Q188.00-1.84 185.32-0.68Q182.64 0.48 178.80 0.48L178.80 0.48Z M3.32 40L3.32 12L16.04 12Q20.60 12 24.10 13.74Q27.60 15.48 29.54 18.64Q31.48 21.80 31.48 26L31.48 26Q31.48 30.20 29.54 33.36Q27.60 36.52 24.10 38.26Q20.60 40 16.04 40L16.04 40L3.32 40ZM9.80 34.68L15.72 34.68Q19.92 34.68 22.42 32.34Q24.92 30 24.92 26L24.92 26Q24.92 22 22.42 19.66Q19.92 17.32 15.72 17.32L15.72 17.32L9.80 17.32L9.80 34.68Z M42.80 34.80L58.04 34.80L58.04 40L36.36 40L36.36 12L57.52 12L57.52 17.20L42.80 17.20L42.80 23.28L55.80 23.28L55.80 28.32L42.80 28.32L42.80 34.80Z M18.48 80.48Q14.20 80.48 10.74 78.62Q7.28 76.76 5.30 73.46Q3.32 70.16 3.32 66L3.32 66Q3.32 61.84 5.30 58.54Q7.28 55.24 10.74 53.38Q14.20 51.52 18.52 51.52L18.52 51.52Q22.16 51.52 25.10 52.80Q28.04 54.08 30.04 56.48L30.04 56.48L25.88 60.32Q23.04 57.04 18.84 57.04L18.84 57.04Q16.24 57.04 14.20 58.18Q12.16 59.32 11.02 61.36Q9.88 63.40 9.88 66L9.88 66Q9.88 68.60 11.02 70.64Q12.16 72.68 14.20 73.82Q16.24 74.96 18.84 74.96L18.84 74.96Q23.04 74.96 25.88 71.64L25.88 71.64L30.04 75.48Q28.04 77.92 25.08 79.20Q22.12 80.48 18.48 80.48L18.48 80.48Z M53.60 52L60.08 52L60.08 80L53.60 80L53.60 68.52L40.88 68.52L40.88 80L34.40 80L34.40 52L40.88 52L40.88 63.04L53.60 63.04L53.60 52Z M87.64 80L85.16 74L72.16 74L69.68 80L63.04 80L75.52 52L81.92 52L94.44 80L87.64 80ZM74.24 69.08L83.12 69.08L78.68 58.36L74.24 69.08Z M122.16 80L115.20 80L109.80 72.20L109.48 72.20L103.84 72.20L103.84 80L97.36 80L97.36 52L109.48 52Q113.20 52 115.94 53.24Q118.68 54.48 120.16 56.76Q121.64 59.04 121.64 62.16L121.64 62.16Q121.64 65.28 120.14 67.54Q118.64 69.80 115.88 71L115.88 71L122.16 80ZM115.08 62.16Q115.08 59.80 113.56 58.54Q112.04 57.28 109.12 57.28L109.12 57.28L103.84 57.28L103.84 67.04L109.12 67.04Q112.04 67.04 113.56 65.76Q115.08 64.48 115.08 62.16L115.08 62.16Z M126.76 80L126.76 52L133.24 52L133.24 74.72L147.28 74.72L147.28 80L126.76 80Z M172.36 52L161.48 70.08L161.48 80L155 80L155 70L144.16 52L151.04 52L158.52 64.44L166 52L172.36 52Z" />
        </g>
      </svg>
    </g>
  </svg>
</svg>